<?xml version="1.0" encoding="iso-8859-1"?>
<!-- Uploaded to: SVG Repo, www.svgrepo.com, Generator: SVG Repo Mixer Tools -->
<svg fill="#000000" height="800px" width="800px" version="1.1" id="Layer_1" xmlns="http://www.w3.org/2000/svg" xmlns:xlink="http://www.w3.org/1999/xlink" 
	 viewBox="0 0 512 512" xml:space="preserve">
<g>
	<g>
		<path d="M360.14,213.201c62.702-65.182,63.444-120.692,63.444-123.075c0-41.697-12.029-69.385-35.753-82.291
			c-43.887-23.874-112.598,13.359-131.832,24.81c-0.623-0.371-1.281-0.759-2.005-1.182c-0.494-0.632-1.046-1.229-1.718-1.733
			c-1.351-1.012-2.89-1.563-4.454-1.752C221.749,13.654,163.164-13.378,124.17,7.835c-23.724,12.906-35.753,40.593-35.753,82.291
			c0,2.383,0.742,57.893,63.444,123.075c-8.542,19.969-35.368,85.312-35.512,118.717c-0.216,3.896-2.112,42.021,3.583,81.889
			c8.378,58.643,28.656,90.668,60.271,95.184c0.439,0.061,0.878,0.093,1.316,0.093c2.227,0,4.396-0.8,6.1-2.278
			c2.039-1.768,3.211-4.335,3.211-7.033c0-0.457,0.242-46.151,9.267-91.277c3.892-19.464,9.628-40.789,18.939-57.289v123.551
			c0,20.534,16.706,37.241,37.241,37.241c20.534,0,37.241-16.706,37.241-37.241V351.076c20.948,40.496,27.78,114.054,27.793,148.7
			c0.001,2.698,1.105,5.264,3.144,7.03c1.704,1.477,3.838,2.278,6.063,2.278c0.438,0,0.86-0.032,1.299-0.093
			c31.615-4.517,51.885-36.541,60.263-95.184c5.695-39.868,3.795-77.993,3.579-81.889
			C395.512,298.513,368.682,233.17,360.14,213.201z M181.699,404.846c-6.543,32.713-8.576,65.017-9.207,82.233
			c-36.687-20.239-39.779-116.028-37.541-154.343c0.01-0.182,0.016-0.364,0.016-0.546c0-34.836,36.075-116.431,36.439-117.25
			c1.564-3.521,0.799-7.641-1.924-10.365c-32.042-32.042-47.315-61.487-54.484-80.546c-7.744-20.588-7.96-33.817-7.961-33.903
			c0-34.344,8.753-56.524,26.016-65.926c26.542-14.458,71.098,2.147,99.286,16.597l-21.028,28.036
			c-3.016,4.023-2.294,9.715,1.632,12.856l39.887,31.908l-32.506,48.759c-2.853,4.278-1.697,10.059,2.582,12.911l47.24,31.493
			l-39.917,47.902c-2.19,2.626-2.763,6.243-1.492,9.417l16.51,41.277C215.027,311.601,193.673,344.978,181.699,404.846z
			 M256,493.014c-6.873,0-12.875-2.328-16.101-9.31h32.201C268.876,490.686,262.874,493.014,256,493.014z M274.895,465.083h-37.241
			v-3.189l37.241-18.62V465.083z M274.895,422.453l-37.241,18.62v-25.73l37.241-18.62V422.453z M274.895,375.902l-37.241,18.62
			v-25.73l37.241-18.62V375.902z M274.895,329.351l-37.241,18.62V328.83c4.655-3.78,11.691-5.951,18.62-5.951
			c6.878,0,11.638,2.13,18.62,5.926V329.351z M339.508,487.079c-0.631-17.216-2.664-49.52-9.207-82.233
			c-12.201-61.007-34.143-94.509-65.281-99.819c-0.104-0.439-0.203-0.878-0.376-1.309l-16.559-41.399l42.997-51.597
			c1.691-2.029,2.441-4.681,2.062-7.296c-0.378-2.614-1.851-4.945-4.049-6.41l-48.115-32.076l32.077-48.115
			c2.679-4.018,1.841-9.417-1.93-12.435l-39.505-31.604l17.1-22.799c0.782,0.486,1.527,0.957,2.224,1.407
			c0.163,0.106,0.34,0.166,0.507,0.259c0.344,0.193,0.684,0.389,1.047,0.535c0.253,0.103,0.514,0.166,0.773,0.245
			c0.316,0.097,0.627,0.203,0.952,0.266c0.274,0.053,0.549,0.067,0.825,0.095c0.324,0.034,0.645,0.075,0.972,0.075
			c0.261-0.001,0.518-0.037,0.779-0.06c0.339-0.03,0.676-0.052,1.012-0.118c0.264-0.052,0.515-0.142,0.773-0.217
			c0.316-0.092,0.633-0.172,0.942-0.299c0.309-0.126,0.598-0.298,0.893-0.458c0.212-0.115,0.432-0.193,0.637-0.326
			c21.326-13.8,84.074-45.591,117.874-27.2c17.273,9.397,26.031,31.58,26.031,65.934c0,0.52-0.714,52.719-62.445,114.449
			c-2.723,2.724-3.488,6.844-1.924,10.365c0.364,0.819,36.438,82.414,36.438,117.25c0,0.182,0.006,0.364,0.016,0.546
			C379.286,371.051,376.195,466.84,339.508,487.079z"/>
	</g>
</g>
</svg>